<?xml version="1.0" encoding="UTF-8" standalone="no"?>
<!-- Created with Inkscape (http://www.inkscape.org/) -->

<svg
   width="300"
   height="300"
   viewBox="0 0 300 300"
   version="1.1"
   id="svg1"
   xml:space="preserve"
   inkscape:version="1.4.3 (0d15f75042, 2025-12-25)"
   sodipodi:docname="favicon.ico"
   xmlns:inkscape="http://www.inkscape.org/namespaces/inkscape"
   xmlns:sodipodi="http://sodipodi.sourceforge.net/DTD/sodipodi-0.dtd"
   xmlns="http://www.w3.org/2000/svg"
   xmlns:svg="http://www.w3.org/2000/svg"><sodipodi:namedview
     id="namedview1"
     pagecolor="#ffffff"
     bordercolor="#000000"
     borderopacity="0.25"
     inkscape:showpageshadow="2"
     inkscape:pageopacity="0.0"
     inkscape:pagecheckerboard="0"
     inkscape:deskcolor="#d1d1d1"
     inkscape:document-units="px"
     inkscape:zoom="1.0559461"
     inkscape:cx="100.85742"
     inkscape:cy="113.64216"
     inkscape:window-width="1366"
     inkscape:window-height="656"
     inkscape:window-x="0"
     inkscape:window-y="0"
     inkscape:window-maximized="1"
     inkscape:current-layer="layer1" /><defs
     id="defs1" /><g
     inkscape:label="Layer 1"
     inkscape:groupmode="layer"
     id="layer1"><path
       style="fill:#000000;stroke-width:1.21431"
       d="m 221.47159,198.731 v -31.13674 l 15.63007,-21.09046 c 8.59653,-11.59976 16.91587,-22.60675 18.48743,-24.45997 l 2.85738,-3.3695 5.72977,0.002 c 4.66472,0.001 6.38994,0.34816 9.28167,1.86487 6.29567,3.30209 11.00844,10.23749 13.99582,20.59655 1.15906,4.01919 1.32382,8.93143 1.56335,46.61139 l 0.26776,42.11872 h -11.26836 -11.26836 l -0.24192,-36.50291 -0.24191,-36.50289 -1.82085,-3.70496 c -2.54505,-5.17861 -4.90685,-6.75919 -10.05176,-6.72693 -2.28294,0.0143 -5.37986,0.45601 -6.88205,0.98156 l -2.73127,0.95553 v 40.75031 40.75029 H 233.12498 221.47159 Z M 83.562181,207.21723 C 55.253243,168.12902 41.572435,148.97967 41.572435,148.44321 c 0,-0.31169 13.778746,-6.77012 30.619435,-14.35205 16.840686,-7.58195 30.74766,-13.99864 30.90435,-14.25932 0.15672,-0.26068 -13.785893,-7.70056 -30.983588,-16.53309 L 40.844097,87.23961 V 75.147123 63.054633 l 45.909086,25.151815 45.909067,25.151822 -0.20596,7.47184 -0.20594,7.47184 -28.58723,13.83037 c -15.722949,7.60671 -28.587198,14.11162 -28.587198,14.45537 0,0.34375 10.247279,14.69796 22.771732,31.89828 12.524446,17.20031 23.526446,32.36838 24.448866,33.70682 l 1.67713,2.43351 H 110.07203 96.170384 Z M 10.253957,156.11319 V 88.348848 H 22.63568 35.017404 v 67.764342 67.76436 H 22.63568 10.253957 Z m 137.976983,62.90204 c -4.92752,-5.37132 -5.01798,-16.10561 -0.18342,-21.7664 1.89212,-2.21548 2.65355,-2.57361 5.47199,-2.57361 2.72591,0 3.62901,0.39069 5.39455,2.33373 1.16628,1.28354 2.31656,3.13678 2.55616,4.11827 l 0.43568,1.78455 h 14.70935 14.70934 l 3.23802,-2.14082 c 8.51263,-5.62814 13.07058,-15.82097 13.07058,-29.22937 0,-11.05912 -2.43604,-19.07461 -7.72926,-25.4321 -4.48065,-5.38153 -7.11797,-6.31255 -18.85503,-6.65615 l -10.19671,-0.29849 -1.36635,3.1189 c -1.46222,3.33778 -4.82878,5.96993 -7.64146,5.97449 -1.02456,0.001 -2.83474,-1.13865 -4.4601,-2.80964 -5.33445,-5.48416 -5.62705,-16.42869 -0.59672,-22.31871 1.86327,-2.1817 2.6741,-2.5736 5.32459,-2.5736 2.64999,0 3.4614,0.39198 5.3228,2.57152 1.20792,1.41433 2.39852,3.22684 2.64579,4.0278 0.41358,1.33971 1.33715,1.48117 11.53557,1.76689 10.55711,0.29575 11.26924,0.41339 14.92727,2.4656 7.23999,4.06172 12.08848,10.87652 15.46729,21.73999 2.49986,8.03748 2.89647,24.06548 0.80703,32.61407 -3.03788,12.42893 -8.96787,21.22859 -16.8381,24.98641 -3.87739,1.85135 -4.47836,1.91292 -18.73987,1.92 l -14.73401,0.007 -1.45116,2.92433 c -3.25132,6.55197 -8.64448,8.0008 -12.82382,3.44503 z m 7.24825,-8.30253 c 0.86511,-2.31767 0.46068,-5.59427 -0.74941,-6.07166 -2.75038,-1.08504 -4.81714,2.61078 -3.19862,5.71988 0.94749,1.8201 3.32103,2.03159 3.94803,0.35178 z m 8.47308,-73.73035 c 1.82393,-3.50373 -0.69294,-8.17485 -3.23574,-6.00528 -1.3192,1.12556 -1.5056,3.96695 -0.39959,6.09153 0.98144,1.8853 2.62934,1.8462 3.63533,-0.0862 z m 19.39674,45.71589 c -1.36663,-1.2336 -2.87725,-3.21699 -3.35694,-4.40757 l -0.87216,-2.16467 -9.59638,-0.30215 c -8.41298,-0.26491 -10.09837,-0.54049 -13.66692,-2.23475 -7.582,-3.59978 -13.73658,-12.54165 -16.76962,-24.36429 -2.17017,-8.45927 -2.16621,-21.70934 0.008,-29.76795 3.21337,-11.90515 9.67929,-21.25441 17.18953,-24.85487 3.43488,-1.6467 4.47819,-1.74626 18.3718,-1.75316 l 14.73011,-0.007 1.19436,-2.433529 c 2.25651,-4.597703 4.63816,-6.551802 7.9853,-6.551802 5.74981,0 9.2321,5.286082 9.19549,13.958691 -0.0581,13.75692 -12.12444,18.8129 -16.8582,7.06383 l -0.92794,-2.30308 -13.56793,0.004 c -7.46238,0.002 -14.84032,0.36737 -16.39543,0.81128 -3.55874,1.01584 -9.07387,6.26313 -11.60202,11.03851 -5.70791,10.78164 -5.79229,27.58997 -0.19552,38.94466 2.65871,5.39398 5.38424,8.35756 9.49689,10.3264 3.21861,1.54085 4.76959,1.75852 12.57486,1.76495 l 8.90343,0.007 1.18166,-2.34921 c 1.92386,-3.82475 4.56858,-5.88942 7.52006,-5.87069 9.08149,0.0576 12.64419,17.18942 5.17216,24.87116 -3.48573,3.58356 -6.20357,3.74415 -9.71553,0.57407 z m 6.68833,-9.79759 c 1.28408,-2.38208 0.072,-5.93018 -2.02559,-5.93018 -2.72654,0 -3.94735,4.86508 -1.77995,7.09332 1.46362,1.5047 2.5457,1.17395 3.80554,-1.16314 z m 10.16682,-71.97233 c 1.00647,-1.03472 1.14646,-4.98791 0.22933,-6.47573 -0.9789,-1.58801 -3.17375,-0.69382 -3.91556,1.59522 -0.50615,1.56189 -0.38039,2.54553 0.50271,3.93108 1.32163,2.0737 1.91716,2.2513 3.18352,0.94943 z M 91.827669,165.46239 v -9.74463 l 23.124691,0.19772 23.12468,0.19771 0.20385,9.54691 0.20383,9.54691 H 115.15619 91.827669 Z M 221.47159,122.10428 V 93.71121 l 11.4713,-12.40121 11.4713,-12.401206 0.19156,25.851166 0.19155,25.85117 -11.04014,14.94311 c -6.0721,8.21872 -11.32039,14.94313 -11.66287,14.94313 -0.34248,0 -0.6227,-12.7769 -0.6227,-28.39309 z"
       id="path1" /></g></svg>
